#!OML:ASF F:\VICON\USERDATA\INSTALL\rory3\rory3.ASF
:FULLY-SPECIFIED
:DEGREES
10
root -1.367617288329754 17.90929576299908 -21.0448859343554 4.657504830689666 -1.0021149004459642 -2.5543128595467026
lfemur -48.95758786037787 5.6078930492657575 -19.128704277013703
ltibia 83.38769262352588
lfoot 2.1614804445551155 -10.966800025471999
ltoes -8.968962175491042
rfemur 7.896059963783761 6.156294829796913 29.151996259289284
rtibia 36.23810964329491
rfoot 5.387160873454327 -5.053347183059119
rtoes -18.411885223714723
lowerback 13.965808724996656 1.9878925067698825 5.066699557528635
upperback -0.2315742473024438 3.5487614324497194 0.9946582475405982
thorax -7.852469708957294 1.5373816523209678 -2.5171385403565965
lowerneck -17.21231271509842 -5.311504289927499 -1.882209425118676
upperneck 15.238990738443123 -7.188735446258704 2.245128129105834
head 7.675226880540713 -3.314983694453302 0.21134800657704444
lclavicle 1.1641084921926808e-16 1.6716104942333754e-15
lhumerus -66.14398938921987 -6.176151627403973 95.39809023209254
lradius 92.42000583437871
lwrist 35.24089713586975
lhand -28.76010086476536 1.6837027373319158
lfingers 7.125019999999998
lthumb -2.1199908531876566 31.652902892814637
rclavicle 1.1641084921926808e-16 1.6716104942333754e-15
rhumerus -23.25831310416273 16.287494041219126 -92.93270720573145
rradius 121.32398669381558
rwrist -22.152394482540245
rhand -19.59119528671363 46.62727974310611
rfingers 7.125019999999998
rthumb 6.734444725852672 16.75438004929506
11
root -1.3221986061673807 18.092192661785162 -19.951687144134137 3.878740769753889 1.0447498048920385 -2.1100441678311195
lfemur -47.33178807505166 2.5903895714466945 -19.54390359134648
ltibia 73.98079527496559
lfoot 1.0544311220064346 -10.75470035142239
ltoes -12.849798283530589
rfemur 13.237186729632365 5.06825665185872 28.72269685460579
rtibia 30.977611912304198
rfoot 16.460894475710923 -6.316894484208646
rtoes -17.449884909457356
lowerback 15.552299118243633 1.74824418024694 4.998099508886554
upperback -1.0324926522649664 3.3526521975441694 0.9347607265171389
thorax -9.647410138790281 1.3705332821868388 -2.59969805582186
lowerneck -17.30351210546802 -5.602012273170248 -1.795341315113285
upperneck 16.5922829623304 -7.628743519096531 2.097909250282366
head 8.141226914460859 -3.512351632561054 0.07280508255813423
lclavicle 1.1641084946297344e-16 1.6716104611402691e-15
lhumerus -69.04318689227985 -4.603835408653586 94.7405921540064
lradius 93.82400489426664
lwrist 35.16949749911483
lhand -28.368301926299914 0.9927224498039822
lfingers 7.125019999999998
lthumb -1.741641888070479 30.965403365111133
rclavicle 1.1641084946297344e-16 1.6716104611402691e-15
rhumerus -23.81691397074103 15.87319426963429 -92.16231018800988
rradius 122.09598496231148
rwrist -21.09689760907612
rhand -18.511601697433072 44.171688991996184
rfingers 7.125019999999998
rthumb 7.776518316529239 14.334688757893671
12
root -1.1779027900271588 18.279589481754247 -18.643787682320053 3.181726137438924 -1.553943464041831 -1.4540060998628954
lfemur -43.55508986103084 2.976178740159491 -20.469802313712204
ltibia 63.88759858117133
lfoot -0.039440355083439904 -9.387802410931956
ltoes -13.671597513723437
rfemur 18.36868544521564 8.089471416053057 27.292099199431007
rtibia 27.57271296892675
rfoot 24.807990184702764 -4.610427890087315
rtoes -14.677087915546096
lowerback 13.145813653249487 2.947335853041126 5.224609173699557
upperback -0.3758343278158942 4.755446605719161 0.39376602930046234
thorax -7.386197353872929 2.1210859338338865 -3.4233144345917066
lowerneck -17.41131139683162 -5.904370276091561 -1.7528922343789737
upperneck 17.02088054353108 -8.123711282899112 2.353367402379502
head 8.32407299482942 -3.708099577970589 0.07845261092566036
lclavicle 1.164107404024597e-16 1.6716104657732895e-15
lhumerus -70.8240858091306 -3.0742292518709475 93.69599528737749
lradius 95.70520390842628
lwrist 35.39239645079164
lhand -27.68010380605506 0.3753699876773995
lfingers 7.125019999999998
lthumb -1.0769437576317185 30.352404229105485
rclavicle 1.164107404024597e-16 1.6716104657732895e-15
rhumerus -23.70201413421666 16.09849399757728 -91.4968127747734
rradius 122.52798500726306
rwrist -20.449099470367397
rhand -18.808999925410294 43.220892350377
rfingers 7.125019999999998
rthumb 7.4894800732882665 13.373492319401777
13
root -1.215211703111728 18.348188326288568 -17.68238891566988 3.3573947684181777 1.6706581547599777 -1.330106484987796
lfemur -42.68768975730166 0.13859690669670854 -20.11880291282077
ltibia 53.64000214482151
lfoot 0.7726092500628048 -11.837098749617113
ltoes -14.090897020942638
rfemur 19.706683507702436 8.370291012985593 29.534795649872702
rtibia 28.51551249369914
rfoot 27.581288991966666 -5.872865445509058
rtoes 0.8709760665887143
lowerback 14.181407422664858 2.262980547425947 4.44698102545873
upperback -1.0268027387092484 3.8205903150939635 0.5362418804873049
thorax -8.825243685641903 1.6421306270904168 -2.749397461429462
lowerneck -17.41771132216406 -6.113228891938138 -1.7546021969803045
upperneck 17.591377231692125 -8.546339444345072 2.8682536276104553
head 8.55304809142031 -3.8414881835688037 0.18557371832892788
lclavicle 1.1641094475380813e-16 1.6716104915858901e-15
lhumerus -72.61738383770279 -1.6886425214247005 92.7818981059176
lradius 98.05290257428304
lwrist 35.38129648584426
lhand -28.39640183329755 0.5440878197562937
lfingers 7.125019999999998
lthumb -1.7687318364479618 30.516503869462593
rclavicle 1.1641094475380813e-16 1.6716104915858901e-15
rhumerus -24.027212665373337 16.527993299724667 -91.15391408315593
rradius 122.21598530929052
rwrist -20.515999279882678
rhand -19.597595243654492 43.63119079017581
rfingers 7.125019999999998
rthumb 6.728294775286778 13.758090863362092
14
root -1.2272813575091968 18.358288177880276 -16.674887869440166 4.412966674839962 3.217854010951937 -2.0224544599017173
lfemur -42.3380906036585 -1.147252503999999 -19.094804408666626
ltibia 44.015305094447065
lfoot 2.1705704444060783 -14.014695477077748
ltoes -13.174298054469192
rfemur 18.352785546387075 9.661438508592038 32.07849147763848
rtibia 33.12431073555968
rfoot 26.568688820399966 -6.308604443771938
rtoes 10.843094584824424
lowerback 13.78420986585418 2.0297722001522467 4.608820675823391
upperback -1.6903339914976667 3.5678013713883723 0.7919748594814789
thorax -9.351895015339032 1.4945020874247534 -2.5128985778708235
lowerneck -17.521110778457206 -6.362647086443767 -1.820540767402454
upperneck 17.84227562410706 -8.93062757912434 3.0806820806496167
head 8.680105380072401 -3.9964965921755753 0.2092220533717531
lclavicle 1.1641079913681531e-16 1.6716104783486422e-15
lhumerus -73.98398420753693 -0.48813234133921934 92.11960009505232
lradius 100.36700109835657
lwrist 34.96589842104924
lhand -26.648306547075297 -0.574309641893687
lfingers 7.125019999999998
lthumb -0.0804533784359367 29.40540480394725
rclavicle 1.1641079913681531e-16 1.6716104783486422e-15
rhumerus -25.078311817280134 16.874893007002353 -91.31371359742909
rradius 121.47898632667142
rwrist -21.39419671811698
rhand -18.87769951649854 44.229988751499626
rfingers 7.125019999999998
rthumb 7.423200483047106 14.38018854737367
15
root -1.20330204739929 18.324288742162295 -15.613988942015709 4.537245736565178 3.161864174971034 -2.6707023944010424
lfemur -40.32289084822425 -0.7736121961033167 -18.659805011130423
ltibia 36.2124085000367
lfoot 2.4659702527609926 -13.452696358701864
ltoes -16.39509514829893
rfemur 17.342884717712884 10.741786797847382 33.609189507683936
rtibia 39.44600851291083
rfoot 23.487591095655166 -7.060452933093227
rtoes 9.652976006438383
lowerback 13.289512799529906 2.1075816490071877 4.8968399942740355
upperback -1.5124063463523607 3.6952108862466306 0.9403746833141986
thorax -8.855943196199485 1.5650113817017388 -2.5103384160727016
lowerneck -18.209006725551205 -6.338017248221259 -1.9301783828424908
upperneck 17.784176063133557 -8.962677426373665 3.5679585343365736
head 8.814362518674523 -3.954816991834883 0.36355560480887444
lclavicle 1.164107859764095e-16 1.671610435327684e-15
lhumerus -74.29788250745236 0.7045953040336386 91.72720126869226
lradius 102.7429996691124
lwrist 33.884503478920344
lhand -26.514807017655368 -0.6772949407159716
lfingers 7.125019999999998
lthumb 0.04851620499984621 29.302405352004016
rclavicle 1.164107859764095e-16 1.671610435327684e-15
rhumerus -25.889312341912017 17.3620921788764 -91.81861168058336
rradius 119.62098815423005
rwrist -21.175597350059935
rhand -19.045098528188962 44.31218824116818
rfingers 7.125019999999998
rthumb 7.26162147447436 14.456788329179496
16
root -1.2011521061366122 18.250389971332062 -14.59609099045834 4.27456773737868 3.531383331026228 -2.6147226223548246
lfemur -38.34059189375866 0.023888670811168744 -19.51930374380598
ltibia 31.643310207852902
lfoot 1.3813809597567661 -12.305998067023634
ltoes -21.743990150750264
rfemur 15.690587037167996 10.579487057484577 34.14178812098039
rtibia 47.14150646852357
rfoot 21.879491617087847 -8.037510994484663
rtoes 4.054079751506427
lowerback 13.62241073882424 2.124541508522596 4.489230928906623
upperback -1.2661295657225549 3.6580510214026005 0.9245488092897663
thorax -8.803324045819046 1.571051307423592 -2.3019793168430773
lowerneck -18.169607027451733 -6.348967139730865 -1.8656697856201596
upperneck 16.826381666986507 -8.96483749563439 3.6782077361854166
head 8.483869537788188 -3.962386907942728 0.405780394584492
lclavicle 1.1641080791033572e-16 1.6716104062058525e-15
lhumerus -73.68858358559933 1.0868606731770578 91.94510062850375
lradius 104.50499858357593
lwrist 32.886608085393696
lhand -26.004608233098985 -0.878965447189124
lfingers 7.125019999999998
lthumb 0.5413236520851288 29.100105508878087
rclavicle 1.1641080791033572e-16 1.6716104062058525e-15
rhumerus -26.89571159485491 17.567191848141547 -92.3190096100666
rradius 117.21998927720784
rwrist -20.469599416242403
rhand -19.21709749638917 46.38728082827878
rfingers 7.125019999999998
rthumb 7.0955724945107805 16.52618082556248
